<?xml version="1.0" encoding="UTF-8" standalone="no"?>
<svg
   viewBox="0 0 129.80573 141.26134"
   height="141.26134"
   width="129.80573"
   xml:space="preserve"
   id="svg2"
   version="1.1"
   xmlns="http://www.w3.org/2000/svg"
   xmlns:svg="http://www.w3.org/2000/svg"
   xmlns:rdf="http://www.w3.org/1999/02/22-rdf-syntax-ns#"
   xmlns:cc="http://creativecommons.org/ns#"
   xmlns:dc="http://purl.org/dc/elements/1.1/"><metadata
     id="metadata8"><rdf:RDF><cc:Work
         rdf:about=""><dc:format>image/svg+xml</dc:format><dc:type
           rdf:resource="http://purl.org/dc/dcmitype/StillImage" /></cc:Work></rdf:RDF></metadata><defs
     id="defs6"><clipPath
       id="clipPath22"
       clipPathUnits="userSpaceOnUse"><path
         id="path20"
         d="m 842.551,3242.56 c 0,-121.25 -98.293,-219.54 -219.543,-219.54 -121.25,0 -219.551,98.29 -219.551,219.54 0,121.25 98.301,219.55 219.551,219.55 121.25,0 219.543,-98.3 219.543,-219.55 z" /></clipPath><linearGradient
       id="linearGradient32"
       spreadMethod="pad"
       gradientTransform="matrix(439.091,0,0,-439.091,403.462,3242.56)"
       gradientUnits="userSpaceOnUse"
       y2="0"
       x2="1"
       y1="0"
       x1="0"><stop
         id="stop24"
         offset="0"
         style="stop-opacity:1;stop-color:#ee294e" /><stop
         id="stop26"
         offset="0.00119243"
         style="stop-opacity:1;stop-color:#ee294e" /><stop
         id="stop28"
         offset="0.999979"
         style="stop-opacity:1;stop-color:#b9213e" /><stop
         id="stop30"
         offset="1"
         style="stop-opacity:1;stop-color:#b9213e" /></linearGradient><clipPath
       id="clipPath42"
       clipPathUnits="userSpaceOnUse"><path
         id="path40"
         d="M 1377,3239.51 640.813,2718.77 v 239.48 c 148.992,9.2 267.019,132.98 267.019,284.29 0,151.3 -118.027,275.08 -267.019,284.28 v 251.41 z" /></clipPath><linearGradient
       id="linearGradient52"
       spreadMethod="pad"
       gradientTransform="matrix(736.19,0,0,-736.19,640.812,3248.5)"
       gradientUnits="userSpaceOnUse"
       y2="0"
       x2="1"
       y1="0"
       x1="0"><stop
         id="stop44"
         offset="0"
         style="stop-opacity:1;stop-color:#ee294e" /><stop
         id="stop46"
         offset="0.00119243"
         style="stop-opacity:1;stop-color:#ee294e" /><stop
         id="stop48"
         offset="0.999979"
         style="stop-opacity:1;stop-color:#b9213e" /><stop
         id="stop50"
         offset="1"
         style="stop-opacity:1;stop-color:#b9213e" /></linearGradient><clipPath
       id="clipPath66"
       clipPathUnits="userSpaceOnUse"><path
         id="path64"
         d="m 2247.01,3242.56 c 0,-121.25 -98.29,-219.54 -219.54,-219.54 -121.25,0 -219.55,98.29 -219.55,219.54 0,121.25 98.3,219.55 219.55,219.55 121.25,0 219.54,-98.3 219.54,-219.55 z" /></clipPath><linearGradient
       id="linearGradient76"
       spreadMethod="pad"
       gradientTransform="matrix(439.091,0,0,-439.091,1807.92,3242.56)"
       gradientUnits="userSpaceOnUse"
       y2="0"
       x2="1"
       y1="0"
       x1="0"><stop
         id="stop68"
         offset="0"
         style="stop-opacity:1;stop-color:#f3642f" /><stop
         id="stop70"
         offset="0.00119243"
         style="stop-opacity:1;stop-color:#f3642f" /><stop
         id="stop72"
         offset="0.998787"
         style="stop-opacity:1;stop-color:#bc4829" /><stop
         id="stop74"
         offset="1"
         style="stop-opacity:1;stop-color:#bc4829" /></linearGradient><clipPath
       id="clipPath86"
       clipPathUnits="userSpaceOnUse"><path
         id="path84"
         d="m 2781.46,3239.51 -736.19,-520.74 v 239.48 c 149,9.2 267.02,132.98 267.02,284.29 0,151.3 -118.02,275.08 -267.02,284.28 v 251.41 z" /></clipPath><linearGradient
       id="linearGradient96"
       spreadMethod="pad"
       gradientTransform="matrix(736.19,0,0,-736.19,2045.27,3248.5)"
       gradientUnits="userSpaceOnUse"
       y2="0"
       x2="1"
       y1="0"
       x1="0"><stop
         id="stop88"
         offset="0"
         style="stop-opacity:1;stop-color:#f3642f" /><stop
         id="stop90"
         offset="0.00119243"
         style="stop-opacity:1;stop-color:#f3642f" /><stop
         id="stop92"
         offset="0.998787"
         style="stop-opacity:1;stop-color:#bc4829" /><stop
         id="stop94"
         offset="1"
         style="stop-opacity:1;stop-color:#bc4829" /></linearGradient><clipPath
       id="clipPath110"
       clipPathUnits="userSpaceOnUse"><path
         id="path108"
         d="m 3654.55,3242.56 c 0,-121.25 -98.29,-219.54 -219.54,-219.54 -121.26,0 -219.55,98.29 -219.55,219.54 0,121.25 98.29,219.55 219.55,219.55 121.25,0 219.54,-98.3 219.54,-219.55 z" /></clipPath><linearGradient
       id="linearGradient118"
       spreadMethod="pad"
       gradientTransform="matrix(439.091,0,0,-439.091,3215.46,3242.56)"
       gradientUnits="userSpaceOnUse"
       y2="0"
       x2="1"
       y1="0"
       x1="0"><stop
         id="stop112"
         offset="0"
         style="stop-opacity:1;stop-color:#f7b725" /><stop
         id="stop114"
         offset="0.998787"
         style="stop-opacity:1;stop-color:#c38528" /><stop
         id="stop116"
         offset="1"
         style="stop-opacity:1;stop-color:#c38528" /></linearGradient><clipPath
       id="clipPath128"
       clipPathUnits="userSpaceOnUse"><path
         id="path126"
         d="m 4189,3239.51 -736.19,-520.74 v 239.48 c 149,9.2 267.01,132.98 267.01,284.29 0,151.3 -118.01,275.08 -267.01,284.28 v 251.41 z" /></clipPath><linearGradient
       id="linearGradient136"
       spreadMethod="pad"
       gradientTransform="matrix(736.19,0,0,-736.19,3452.81,3248.5)"
       gradientUnits="userSpaceOnUse"
       y2="0"
       x2="1"
       y1="0"
       x1="0"><stop
         id="stop130"
         offset="0"
         style="stop-opacity:1;stop-color:#f7b725" /><stop
         id="stop132"
         offset="0.998787"
         style="stop-opacity:1;stop-color:#c38528" /><stop
         id="stop134"
         offset="1"
         style="stop-opacity:1;stop-color:#c38528" /></linearGradient><clipPath
       id="clipPath150"
       clipPathUnits="userSpaceOnUse"><path
         id="path148"
         d="m 5062.09,3242.56 c 0,-121.25 -98.29,-219.54 -219.55,-219.54 -121.25,0 -219.54,98.29 -219.54,219.54 0,121.25 98.29,219.55 219.54,219.55 121.26,0 219.55,-98.3 219.55,-219.55 z" /></clipPath><linearGradient
       id="linearGradient158"
       spreadMethod="pad"
       gradientTransform="matrix(439.091,0,0,-439.091,4623,3242.56)"
       gradientUnits="userSpaceOnUse"
       y2="0"
       x2="1"
       y1="0"
       x1="0"><stop
         id="stop152"
         offset="0"
         style="stop-opacity:1;stop-color:#82cd28" /><stop
         id="stop154"
         offset="0.998787"
         style="stop-opacity:1;stop-color:#7bcb30" /><stop
         id="stop156"
         offset="1"
         style="stop-opacity:1;stop-color:#7bcb30" /></linearGradient><clipPath
       id="clipPath168"
       clipPathUnits="userSpaceOnUse"><path
         id="path166"
         d="m 5596.54,3239.51 -736.19,-520.74 v 239.48 c 149,9.2 267.01,132.98 267.01,284.29 0,151.3 -118.01,275.08 -267.01,284.28 v 251.41 z" /></clipPath><linearGradient
       id="linearGradient176"
       spreadMethod="pad"
       gradientTransform="matrix(736.19,0,0,-736.19,4860.35,3248.5)"
       gradientUnits="userSpaceOnUse"
       y2="0"
       x2="1"
       y1="0"
       x1="0"><stop
         id="stop170"
         offset="0"
         style="stop-opacity:1;stop-color:#82cd28" /><stop
         id="stop172"
         offset="0.998787"
         style="stop-opacity:1;stop-color:#7bcb30" /><stop
         id="stop174"
         offset="1"
         style="stop-opacity:1;stop-color:#7bcb30" /></linearGradient><clipPath
       id="clipPath190"
       clipPathUnits="userSpaceOnUse"><path
         id="path188"
         d="m 842.551,1978.17 c 0,-121.25 -98.293,-219.54 -219.543,-219.54 -121.25,0 -219.551,98.29 -219.551,219.54 0,121.26 98.301,219.55 219.551,219.55 121.25,0 219.543,-98.29 219.543,-219.55 z" /></clipPath><linearGradient
       id="linearGradient200"
       spreadMethod="pad"
       gradientTransform="matrix(439.091,0,0,-439.091,403.462,1978.18)"
       gradientUnits="userSpaceOnUse"
       y2="0"
       x2="1"
       y1="0"
       x1="0"><stop
         id="stop192"
         offset="0"
         style="stop-opacity:1;stop-color:#5ac134" /><stop
         id="stop194"
         offset="0.00238487"
         style="stop-opacity:1;stop-color:#5ac134" /><stop
         id="stop196"
         offset="0.998787"
         style="stop-opacity:1;stop-color:#45bb4b" /><stop
         id="stop198"
         offset="1"
         style="stop-opacity:1;stop-color:#45bb4b" /></linearGradient><clipPath
       id="clipPath210"
       clipPathUnits="userSpaceOnUse"><path
         id="path208"
         d="M 1377,1975.13 640.813,1454.38 v 239.49 c 148.992,9.2 267.019,132.98 267.019,284.28 0,151.31 -118.027,275.09 -267.019,284.28 v 251.41 z" /></clipPath><linearGradient
       id="linearGradient220"
       spreadMethod="pad"
       gradientTransform="matrix(736.19,0,0,-736.19,640.812,1984.11)"
       gradientUnits="userSpaceOnUse"
       y2="0"
       x2="1"
       y1="0"
       x1="0"><stop
         id="stop212"
         offset="0"
         style="stop-opacity:1;stop-color:#5ac134" /><stop
         id="stop214"
         offset="0.00238487"
         style="stop-opacity:1;stop-color:#5ac134" /><stop
         id="stop216"
         offset="0.998787"
         style="stop-opacity:1;stop-color:#45bb4b" /><stop
         id="stop218"
         offset="1"
         style="stop-opacity:1;stop-color:#45bb4b" /></linearGradient><clipPath
       id="clipPath234"
       clipPathUnits="userSpaceOnUse"><path
         id="path232"
         d="m 2247.01,1978.17 c 0,-121.25 -98.29,-219.54 -219.54,-219.54 -121.25,0 -219.55,98.29 -219.55,219.54 0,121.26 98.3,219.55 219.55,219.55 121.25,0 219.54,-98.29 219.54,-219.55 z" /></clipPath><linearGradient
       id="linearGradient244"
       spreadMethod="pad"
       gradientTransform="matrix(439.091,0,0,-439.091,1807.92,1978.18)"
       gradientUnits="userSpaceOnUse"
       y2="0"
       x2="1"
       y1="0"
       x1="0"><stop
         id="stop236"
         offset="0"
         style="stop-opacity:1;stop-color:#5bc46d" /><stop
         id="stop238"
         offset="0.00238487"
         style="stop-opacity:1;stop-color:#5bc46d" /><stop
         id="stop240"
         offset="0.998787"
         style="stop-opacity:1;stop-color:#3ab95f" /><stop
         id="stop242"
         offset="1"
         style="stop-opacity:1;stop-color:#3ab95f" /></linearGradient><clipPath
       id="clipPath254"
       clipPathUnits="userSpaceOnUse"><path
         id="path252"
         d="m 2781.46,1975.13 -736.19,-520.75 v 239.49 c 149,9.2 267.02,132.98 267.02,284.28 0,151.31 -118.02,275.09 -267.02,284.28 v 251.41 z" /></clipPath><linearGradient
       id="linearGradient264"
       spreadMethod="pad"
       gradientTransform="matrix(736.19,0,0,-736.19,2045.27,1984.11)"
       gradientUnits="userSpaceOnUse"
       y2="0"
       x2="1"
       y1="0"
       x1="0"><stop
         id="stop256"
         offset="0"
         style="stop-opacity:1;stop-color:#5bc46d" /><stop
         id="stop258"
         offset="0.00238487"
         style="stop-opacity:1;stop-color:#5bc46d" /><stop
         id="stop260"
         offset="0.998787"
         style="stop-opacity:1;stop-color:#3ab95f" /><stop
         id="stop262"
         offset="1"
         style="stop-opacity:1;stop-color:#3ab95f" /></linearGradient><clipPath
       id="clipPath278"
       clipPathUnits="userSpaceOnUse"><path
         id="path276"
         d="m 3654.55,1978.17 c 0,-121.25 -98.29,-219.54 -219.54,-219.54 -121.26,0 -219.55,98.29 -219.55,219.54 0,121.26 98.29,219.55 219.55,219.55 121.25,0 219.54,-98.29 219.54,-219.55 z" /></clipPath><linearGradient
       id="linearGradient286"
       spreadMethod="pad"
       gradientTransform="matrix(439.091,0,0,-439.091,3215.46,1978.18)"
       gradientUnits="userSpaceOnUse"
       y2="0"
       x2="1"
       y1="0"
       x1="0"><stop
         id="stop280"
         offset="0"
         style="stop-opacity:1;stop-color:#63ccea" /><stop
         id="stop282"
         offset="0.998787"
         style="stop-opacity:1;stop-color:#3f82c1" /><stop
         id="stop284"
         offset="1"
         style="stop-opacity:1;stop-color:#3f82c1" /></linearGradient><clipPath
       id="clipPath296"
       clipPathUnits="userSpaceOnUse"><path
         id="path294"
         d="m 4189,1975.13 -736.19,-520.75 v 239.49 c 149,9.2 267.01,132.98 267.01,284.28 0,151.31 -118.01,275.09 -267.01,284.28 v 251.41 z" /></clipPath><linearGradient
       id="linearGradient304"
       spreadMethod="pad"
       gradientTransform="matrix(736.19,0,0,-736.19,3452.81,1984.11)"
       gradientUnits="userSpaceOnUse"
       y2="0"
       x2="1"
       y1="0"
       x1="0"><stop
         id="stop298"
         offset="0"
         style="stop-opacity:1;stop-color:#63ccea" /><stop
         id="stop300"
         offset="0.998787"
         style="stop-opacity:1;stop-color:#3f82c1" /><stop
         id="stop302"
         offset="1"
         style="stop-opacity:1;stop-color:#3f82c1" /></linearGradient><clipPath
       id="clipPath318"
       clipPathUnits="userSpaceOnUse"><path
         id="path316"
         d="m 5062.09,1978.17 c 0,-121.25 -98.29,-219.54 -219.55,-219.54 -121.25,0 -219.54,98.29 -219.54,219.54 0,121.26 98.29,219.55 219.54,219.55 121.26,0 219.55,-98.29 219.55,-219.55 z" /></clipPath><linearGradient
       id="linearGradient328"
       spreadMethod="pad"
       gradientTransform="matrix(439.091,0,0,-439.091,4623,1978.18)"
       gradientUnits="userSpaceOnUse"
       y2="0"
       x2="1"
       y1="0"
       x1="0"><stop
         id="stop320"
         offset="0"
         style="stop-opacity:1;stop-color:#3650aa" /><stop
         id="stop322"
         offset="0.00119243"
         style="stop-opacity:1;stop-color:#3650aa" /><stop
         id="stop324"
         offset="0.998787"
         style="stop-opacity:1;stop-color:#3145a2" /><stop
         id="stop326"
         offset="1"
         style="stop-opacity:1;stop-color:#3145a2" /></linearGradient><clipPath
       id="clipPath338"
       clipPathUnits="userSpaceOnUse"><path
         id="path336"
         d="m 5596.54,1975.13 -736.19,-520.75 v 239.49 c 149,9.2 267.01,132.98 267.01,284.28 0,151.31 -118.01,275.09 -267.01,284.28 v 251.41 z" /></clipPath><linearGradient
       id="linearGradient346"
       spreadMethod="pad"
       gradientTransform="matrix(736.19,0,0,-736.19,4860.35,1984.11)"
       gradientUnits="userSpaceOnUse"
       y2="0"
       x2="1"
       y1="0"
       x1="0"><stop
         id="stop340"
         offset="0"
         style="stop-opacity:1;stop-color:#3650aa" /><stop
         id="stop342"
         offset="0.998787"
         style="stop-opacity:1;stop-color:#3145a2" /><stop
         id="stop344"
         offset="1"
         style="stop-opacity:1;stop-color:#3145a2" /></linearGradient><clipPath
       id="clipPath360"
       clipPathUnits="userSpaceOnUse"><path
         id="path358"
         d="M 840,713.789 C 840,592.539 742.273,494.25 621.73,494.25 c -120.546,0 -218.273,98.289 -218.273,219.539 0,121.262 97.727,219.551 218.273,219.551 120.543,0 218.27,-98.289 218.27,-219.551 z" /></clipPath><linearGradient
       id="linearGradient368"
       spreadMethod="pad"
       gradientTransform="matrix(436.538,0,0,-436.538,403.462,713.79)"
       gradientUnits="userSpaceOnUse"
       y2="0"
       x2="1"
       y1="0"
       x1="0"><stop
         id="stop362"
         offset="0"
         style="stop-opacity:1;stop-color:#4c49a7" /><stop
         id="stop364"
         offset="0.998787"
         style="stop-opacity:1;stop-color:#3843a1" /><stop
         id="stop366"
         offset="1"
         style="stop-opacity:1;stop-color:#3843a1" /></linearGradient><clipPath
       id="clipPath378"
       clipPathUnits="userSpaceOnUse"><path
         id="path376"
         d="M 1377,710.738 640.813,190 v 239.48 c 148.992,9.2 267.019,132.981 267.019,284.282 0,151.308 -118.027,275.09 -267.019,284.289 v 251.399 z" /></clipPath><linearGradient
       id="linearGradient386"
       spreadMethod="pad"
       gradientTransform="matrix(736.19,0,0,-736.19,640.812,719.73)"
       gradientUnits="userSpaceOnUse"
       y2="0"
       x2="1"
       y1="0"
       x1="0"><stop
         id="stop380"
         offset="0"
         style="stop-opacity:1;stop-color:#4c49a7" /><stop
         id="stop382"
         offset="0.998787"
         style="stop-opacity:1;stop-color:#3843a1" /><stop
         id="stop384"
         offset="1"
         style="stop-opacity:1;stop-color:#3843a1" /></linearGradient><clipPath
       id="clipPath400"
       clipPathUnits="userSpaceOnUse"><path
         id="path398"
         d="m 2247.01,713.789 c 0,-121.25 -98.29,-219.539 -219.54,-219.539 -121.25,0 -219.55,98.289 -219.55,219.539 0,121.262 98.3,219.551 219.55,219.551 121.25,0 219.54,-98.289 219.54,-219.551 z" /></clipPath><linearGradient
       id="linearGradient408"
       spreadMethod="pad"
       gradientTransform="matrix(439.091,0,0,-439.091,1807.92,713.79)"
       gradientUnits="userSpaceOnUse"
       y2="0"
       x2="1"
       y1="0"
       x1="0"><stop
         id="stop402"
         offset="0"
         style="stop-opacity:1;stop-color:#5c45a5" /><stop
         id="stop404"
         offset="0.998787"
         style="stop-opacity:1;stop-color:#553c9f" /><stop
         id="stop406"
         offset="1"
         style="stop-opacity:1;stop-color:#553c9f" /></linearGradient><clipPath
       id="clipPath418"
       clipPathUnits="userSpaceOnUse"><path
         id="path416"
         d="M 2781.46,710.738 2045.27,190 v 239.48 c 149,9.2 267.02,132.981 267.02,284.282 0,151.308 -118.02,275.09 -267.02,284.289 v 251.399 z" /></clipPath><linearGradient
       id="linearGradient426"
       spreadMethod="pad"
       gradientTransform="matrix(736.19,0,0,-736.19,2045.27,719.73)"
       gradientUnits="userSpaceOnUse"
       y2="0"
       x2="1"
       y1="0"
       x1="0"><stop
         id="stop420"
         offset="0"
         style="stop-opacity:1;stop-color:#5c45a5" /><stop
         id="stop422"
         offset="0.998787"
         style="stop-opacity:1;stop-color:#553c9f" /><stop
         id="stop424"
         offset="1"
         style="stop-opacity:1;stop-color:#553c9f" /></linearGradient><clipPath
       id="clipPath440"
       clipPathUnits="userSpaceOnUse"><path
         id="path438"
         d="m 3654.55,713.789 c 0,-121.25 -98.29,-219.539 -219.54,-219.539 -121.26,0 -219.55,98.289 -219.55,219.539 0,121.262 98.29,219.551 219.55,219.551 121.25,0 219.54,-98.289 219.54,-219.551 z" /></clipPath><linearGradient
       id="linearGradient446"
       spreadMethod="pad"
       gradientTransform="matrix(439.091,0,0,-439.091,3215.46,713.79)"
       gradientUnits="userSpaceOnUse"
       y2="0"
       x2="1"
       y1="0"
       x1="0"><stop
         id="stop442"
         offset="0"
         style="stop-opacity:1;stop-color:#a045a8" /><stop
         id="stop444"
         offset="1"
         style="stop-opacity:1;stop-color:#8b37a0" /></linearGradient><clipPath
       id="clipPath456"
       clipPathUnits="userSpaceOnUse"><path
         id="path454"
         d="M 4189,710.738 3452.81,190 v 239.48 c 149,9.2 267.01,132.981 267.01,284.282 0,151.308 -118.01,275.09 -267.01,284.289 v 251.399 z" /></clipPath><linearGradient
       id="linearGradient462"
       spreadMethod="pad"
       gradientTransform="matrix(736.19,0,0,-736.19,3452.81,719.73)"
       gradientUnits="userSpaceOnUse"
       y2="0"
       x2="1"
       y1="0"
       x1="0"><stop
         id="stop458"
         offset="0"
         style="stop-opacity:1;stop-color:#a045a8" /><stop
         id="stop460"
         offset="1"
         style="stop-opacity:1;stop-color:#8b37a0" /></linearGradient><clipPath
       id="clipPath476"
       clipPathUnits="userSpaceOnUse"><path
         id="path474"
         d="m 5062.09,713.789 c 0,-121.25 -98.29,-219.539 -219.55,-219.539 -121.25,0 -219.54,98.289 -219.54,219.539 0,121.262 98.29,219.551 219.54,219.551 121.26,0 219.55,-98.289 219.55,-219.551 z" /></clipPath><linearGradient
       id="linearGradient484"
       spreadMethod="pad"
       gradientTransform="matrix(439.091,0,0,-439.091,4623,713.79)"
       gradientUnits="userSpaceOnUse"
       y2="0"
       x2="1"
       y1="0"
       x1="0"><stop
         id="stop478"
         offset="0"
         style="stop-opacity:1;stop-color:#ee1d8b" /><stop
         id="stop480"
         offset="0.998787"
         style="stop-opacity:1;stop-color:#ad2297" /><stop
         id="stop482"
         offset="1"
         style="stop-opacity:1;stop-color:#ad2297" /></linearGradient><clipPath
       id="clipPath494"
       clipPathUnits="userSpaceOnUse"><path
         id="path492"
         d="M 5596.54,710.738 4860.35,190 v 239.48 c 149,9.2 267.01,132.981 267.01,284.282 0,151.308 -118.01,275.09 -267.01,284.289 v 251.399 z" /></clipPath><linearGradient
       id="linearGradient502"
       spreadMethod="pad"
       gradientTransform="matrix(736.19,0,0,-736.19,4860.35,719.73)"
       gradientUnits="userSpaceOnUse"
       y2="0"
       x2="1"
       y1="0"
       x1="0"><stop
         id="stop496"
         offset="0"
         style="stop-opacity:1;stop-color:#ee1d8b" /><stop
         id="stop498"
         offset="0.998787"
         style="stop-opacity:1;stop-color:#ad2297" /><stop
         id="stop500"
         offset="1"
         style="stop-opacity:1;stop-color:#ad2297" /></linearGradient></defs><g
     transform="matrix(1.3333333,0,0,-1.3333333,-53.794265,503.76399)"
     id="g10"><g
       id="g36"
       transform="scale(0.1)"
       style="fill:#d24545;fill-opacity:1"><g
         clip-path="url(#clipPath42)"
         id="g38"
         style="fill:#d24545;fill-opacity:1"><path
           id="path54"
           style="fill:#d24545;fill-opacity:1;fill-rule:nonzero;stroke:none"
           d="M 1377,3239.51 640.813,2718.77 v 239.48 c 148.992,9.2 267.019,132.98 267.019,284.29 0,151.3 -118.027,275.08 -267.019,284.28 v 251.41 L 1377,3239.51" /></g></g><g
       id="g16"
       transform="scale(0.1)"
       style="fill:#d24545;fill-opacity:1"><g
         clip-path="url(#clipPath22)"
         id="g18"
         style="fill:#d24545;fill-opacity:1"><path
           id="path34"
           style="fill:#d24545;fill-opacity:1;fill-rule:nonzero;stroke:none"
           d="m 842.551,3242.56 c 0,-121.25 -98.293,-219.54 -219.543,-219.54 -121.25,0 -219.551,98.29 -219.551,219.54 0,121.25 98.301,219.55 219.551,219.55 121.25,0 219.543,-98.3 219.543,-219.55" /></g></g></g></svg>
