<?xml version="1.0" encoding="UTF-8" standalone="no"?>
<!-- Created with Inkscape (http://www.inkscape.org/) -->

<svg
   width="11.794333mm"
   height="11.632677mm"
   viewBox="0 0 11.794333 11.632677"
   version="1.1"
   id="svg1"
   sodipodi:docname="correo.svg"
   inkscape:version="1.3.2 (091e20e, 2023-11-25, custom)"
   xmlns:inkscape="http://www.inkscape.org/namespaces/inkscape"
   xmlns:sodipodi="http://sodipodi.sourceforge.net/DTD/sodipodi-0.dtd"
   xmlns="http://www.w3.org/2000/svg"
   xmlns:svg="http://www.w3.org/2000/svg">
  <sodipodi:namedview
     id="namedview1"
     pagecolor="#ffffff"
     bordercolor="#000000"
     borderopacity="0.25"
     inkscape:showpageshadow="2"
     inkscape:pageopacity="0.0"
     inkscape:pagecheckerboard="0"
     inkscape:deskcolor="#d1d1d1"
     inkscape:document-units="mm"
     inkscape:zoom="11.280573"
     inkscape:cx="23.580362"
     inkscape:cy="21.851727"
     inkscape:window-width="1920"
     inkscape:window-height="1017"
     inkscape:window-x="-8"
     inkscape:window-y="-8"
     inkscape:window-maximized="1"
     inkscape:current-layer="svg1" />
  <defs
     id="defs1">
    <linearGradient
       id="swatch10">
      <stop
         style="stop-color:#000000;stop-opacity:1;"
         offset="0"
         id="stop11" />
    </linearGradient>
  </defs>
  <g
     id="layer1"
     transform="translate(-75.637819,-99.615954)">
    <path
       id="path2040"
       style="fill:#EEEEEE;fill-opacity:1;fill-rule:nonzero;stroke:none;stroke-width:0.0190927"
       d="m 83.267358,103.39248 c -0.176947,-0.0494 -0.477204,-0.11511 -0.883946,-0.11511 -1.555516,0 -2.810577,1.36526 -2.810577,2.96075 0,0.72379 0.388927,1.25015 1.166587,1.25015 1.025267,0 1.962258,-1.21719 2.156623,-2.23694 z m 0.972223,7.10609 c -0.972223,0.477 -1.962061,0.65786 -3.146462,0.65786 -2.899249,0 -5.356328,-1.97415 -5.356328,-5.13196 0,-3.38857 2.528135,-6.316543 6.452256,-6.316543 3.075801,0 5.14415,2.006733 5.14415,4.753663 0,2.46754 -1.485055,3.91495 -3.146859,3.91495 -0.706998,0 -1.360953,-0.44423 -1.308106,-1.44741 h -0.07046 c -0.618723,0.9704 -1.431812,1.44741 -2.492508,1.44741 -1.025267,0 -1.909213,-0.77316 -1.909213,-2.07267 0,-2.03952 1.732265,-3.89837 4.189541,-3.89837 0.760045,0 1.432011,0.14808 1.891599,0.3455 l -0.601108,2.97714 c -0.265223,1.25035 -0.05304,1.82588 0.530249,1.84228 0.901563,0.0166 1.909215,-1.10208 1.909215,-3.01011 0,-2.38521 -1.537901,-4.0958 -4.278016,-4.0958 -2.881239,0 -5.303086,2.12203 -5.303086,5.46125 0,2.74693 1.926829,4.44112 4.543042,4.44112 1.007454,0 1.944444,-0.19743 2.669257,-0.5759 l 0.282839,0.70759" />
    <path
       id="path2042"
       style="fill:#EEEEEE;fill-opacity:1;fill-rule:nonzero;stroke:none;stroke-width:0.0190927"
       d="m 83.267358,103.39248 0.02831,-0.0882 c -0.183281,-0.0512 -0.494227,-0.11916 -0.91225,-0.11898 -0.809724,-1.8e-4 -1.539286,0.35583 -2.063201,0.91349 -0.524115,0.55805 -0.846143,1.31905 -0.846341,2.13935 0,0.37681 0.10075,0.71071 0.313914,0.95455 0.212574,0.2444 0.539156,0.38879 0.951638,0.38769 0.556969,-0.002 1.068217,-0.3258 1.465854,-0.76929 0.398034,-0.44513 0.687008,-1.01533 0.78815,-1.54372 v 5.2e-4 l 0.387543,-1.94007 -0.0853,-0.0238 -0.02831,0.0882 -0.09738,-0.017 -0.371313,1.85885 v 5.2e-4 c -0.09322,0.49137 -0.370125,1.03965 -0.745397,1.45809 -0.375667,0.4201 -0.84535,0.70446 -1.313846,0.70298 -0.365177,-0.001 -0.62189,-0.12007 -0.798244,-0.31972 -0.17576,-0.20038 -0.269578,-0.49136 -0.269379,-0.83834 -1.99e-4,-0.77518 0.305204,-1.49457 0.797451,-2.01816 0.492642,-0.52361 1.168172,-0.85051 1.914162,-0.85051 0.395262,0 0.685226,0.0637 0.855445,0.11124 l 0.0285,-0.0882 -0.09739,-0.017 z m 0.972223,7.10609 -0.04611,-0.0816 c -0.956784,0.4691 -1.926236,0.647 -3.100345,0.64738 -1.425676,-1.9e-4 -2.738927,-0.48493 -3.696108,-1.35552 -0.957179,-0.87094 -1.56086,-2.12773 -1.561256,-3.68436 0,-1.67302 0.624265,-3.23001 1.728901,-4.36727 1.105428,-1.13707 2.689051,-1.856635 4.62439,-1.857188 1.514942,3.7e-4 2.772973,0.493028 3.655137,1.319588 0.881968,0.82676 1.389653,1.98999 1.390049,3.34199 0,1.21683 -0.366167,2.17415 -0.92848,2.8252 -0.562908,0.65086 -1.319784,0.99729 -2.119414,0.99766 -0.31906,-1.9e-4 -0.620306,-0.0959 -0.841788,-0.29505 -0.221085,-0.19945 -0.369729,-0.50499 -0.370323,-0.94793 0,-0.0352 0.001,-0.0711 0.0028,-0.10774 l 0.0051,-0.0966 h -0.174366 -0.05641 l -0.02869,0.0451 c -0.303424,0.4759 -0.650986,0.82546 -1.047832,1.0566 -0.397241,0.23095 -0.844955,0.3455 -1.359567,0.34569 -0.485913,-1.9e-4 -0.935012,-0.18215 -1.265948,-0.51901 -0.33054,-0.33703 -0.543907,-0.83097 -0.544302,-1.46158 0,-0.99526 0.42317,-1.94762 1.145806,-2.65024 0.723228,-0.70262 1.743349,-1.15567 2.944772,-1.15604 0.745992,-1.8e-4 1.406477,0.14623 1.850034,0.33703 l 0.04156,-0.0836 -0.09718,-0.017 -0.601305,2.97715 1.98e-4,-5.2e-4 c -0.07679,0.36282 -0.114601,0.6713 -0.114601,0.93007 3.96e-4,0.32101 0.057,0.56762 0.181896,0.74461 0.124101,0.17809 0.324998,0.27275 0.557167,0.27736 h 3.96e-4 6.17e-4 l 0.02157,1.8e-4 c 0.494424,-0.001 0.991817,-0.30406 1.36412,-0.83669 0.372698,-0.5341 0.624265,-1.30375 0.624463,-2.26569 1.98e-4,-1.21056 -0.390907,-2.25906 -1.138087,-3.00513 -0.746782,-0.74627 -1.847262,-1.18331 -3.238893,-1.18276 -1.466845,-1.8e-4 -2.819881,0.54092 -3.803781,1.50708 -0.984494,0.96599 -1.598467,2.35594 -1.598269,4.04626 -3.96e-4,1.39309 0.489871,2.52942 1.318794,3.3151 0.828527,0.78605 1.992344,1.21848 3.323212,1.21811 1.021309,-1.8e-4 1.973739,-0.19963 2.71775,-0.58769 l -0.04849,-0.0803 -0.09263,0.032 0.282642,0.70759 0.09283,-0.032 -0.04611,-0.0816 0.04611,0.0816 0.09282,-0.032 -0.323216,-0.80851 -0.10075,0.0527 c -0.705811,0.36871 -1.627364,0.5643 -2.620962,0.56411 -1.285345,-3.6e-4 -2.392951,-0.41512 -3.181891,-1.16285 -0.788546,-0.74812 -1.261792,-1.83252 -1.262188,-3.18619 1.99e-4,-1.64908 0.596952,-2.98967 1.543839,-3.91955 0.947284,-0.92951 2.24589,-1.44925 3.660284,-1.44962 1.348285,7.4e-4 2.387011,0.419 3.094208,1.12419 0.706604,0.70557 1.084645,1.70488 1.084844,2.87953 1.97e-4,0.9321 -0.244639,1.6675 -0.592597,2.16532 -0.348354,0.49892 -0.795671,0.75399 -1.198058,0.75289 l -0.01781,-1.8e-4 -0.0018,0.0921 0.003,-0.0919 c -0.183875,-0.007 -0.304413,-0.0663 -0.398033,-0.19485 -0.09263,-0.12948 -0.149633,-0.3422 -0.14904,-0.64313 -1.98e-4,-0.242 0.03563,-0.53999 0.11084,-0.89453 l 1.97e-4,-5.2e-4 0.615359,-3.04768 -0.06987,-0.0302 c -0.475621,-0.20406 -1.159066,-0.35361 -1.933163,-0.35397 -1.255853,-1.9e-4 -2.330405,0.47608 -3.087677,1.21276 -0.757669,0.73669 -1.200632,1.73362 -1.200829,2.7777 -1.98e-4,0.66909 0.228409,1.21129 0.596158,1.58571 0.367157,0.37461 0.872666,0.5794 1.412019,0.57904 0.546084,3.6e-4 1.035164,-0.12358 1.46447,-0.37369 0.429504,-0.25011 0.797847,-0.62416 1.113147,-1.11885 l -0.08511,-0.047 v 0.0921 h 0.07046 v -0.0921 l -0.09877,-0.005 c -0.0021,0.0398 -0.0032,0.0786 -0.0032,0.11694 -6.17e-4,0.48107 0.16626,0.84314 0.430692,1.08036 0.264233,0.2374 0.618524,0.34698 0.979348,0.3468 0.862371,3.6e-4 1.678825,-0.377 2.273797,-1.06655 0.595565,-0.68953 0.972024,-1.68959 0.972024,-2.94049 1.98e-4,-1.39473 -0.526093,-2.60842 -1.447447,-3.47182 -0.92096,-0.86358 -2.234806,-1.374294 -3.795666,-1.373926 -1.988781,-5.75e-4 -3.631386,0.743876 -4.771055,1.917976 -1.140264,1.1739 -1.780165,2.7751 -1.780165,4.49066 -3.96e-4,1.60119 0.624463,2.91047 1.620832,3.81605 0.995975,0.90593 2.360688,1.40817 3.83446,1.40799 1.194694,3.6e-4 2.204721,-0.18343 3.192579,-0.66855 l 0.077,-0.0377 -0.03029,-0.0757 -0.09282,0.032" />
  </g>
</svg>
