<?xml version="1.0" encoding="UTF-8" standalone="no"?>
<svg
   viewBox="0 0 212.41826 28.882666"
   height="28.882666"
   width="212.41826"
   xml:space="preserve"
   id="svg2"
   version="1.1"
   xmlns="http://www.w3.org/2000/svg"
   xmlns:svg="http://www.w3.org/2000/svg"
   xmlns:rdf="http://www.w3.org/1999/02/22-rdf-syntax-ns#"
   xmlns:cc="http://creativecommons.org/ns#"
   xmlns:dc="http://purl.org/dc/elements/1.1/"><metadata
     id="metadata8"><rdf:RDF><cc:Work
         rdf:about=""><dc:format>image/svg+xml</dc:format><dc:type
           rdf:resource="http://purl.org/dc/dcmitype/StillImage" /></cc:Work></rdf:RDF></metadata><defs
     id="defs6" /><g
     transform="matrix(1.3333333,0,0,-1.3333333,-75.796398,322.97599)"
     id="g10"><g
       transform="scale(0.1)"
       id="g12"><path
         id="path16"
         style="fill:#fabc09;fill-opacity:1;fill-rule:nonzero;stroke:none"
         d="m 751.215,2205.7 -69.832,50.32 -70.598,-49.2 26.301,81.95 -68.613,51.95 86.043,0.31 28.214,81.29 26.883,-81.75 86.067,-1.7 -69.473,-50.82 25.008,-82.35" /><path
         id="path18"
         style="fill:#fabc09;fill-opacity:1;fill-rule:nonzero;stroke:none"
         d="m 1092.67,2205.7 -69.79,50.32 -70.61,-49.2 26.3,81.95 -68.613,51.95 86.043,0.31 28.2,81.29 26.9,-81.75 86.04,-1.7 -69.43,-50.82 24.96,-82.35" /><path
         id="path20"
         style="fill:#fabc09;fill-opacity:1;fill-rule:nonzero;stroke:none"
         d="m 1434.16,2205.7 -69.79,50.32 -70.62,-49.2 26.31,81.95 -68.63,51.95 86.07,0.31 28.21,81.29 26.88,-81.75 86.05,-1.7 -69.46,-50.82 24.98,-82.35" /><path
         id="path22"
         style="fill:#fabc09;fill-opacity:1;fill-rule:nonzero;stroke:none"
         d="m 1775.65,2205.7 -69.8,50.32 -70.63,-49.2 26.31,81.95 -68.61,51.95 86.06,0.31 28.2,81.29 26.9,-81.75 86.04,-1.7 -69.44,-50.82 24.97,-82.35" /><path
         id="path24"
         style="fill:#fabc09;fill-opacity:1;fill-rule:nonzero;stroke:none"
         d="m 2117.13,2205.7 -69.81,50.32 -70.61,-49.2 26.3,81.95 -68.6,51.95 86.02,0.31 28.22,81.29 26.92,-81.75 86.04,-1.7 -69.46,-50.82 24.98,-82.35" /></g></g></svg>
