<?xml version="1.0" encoding="UTF-8" standalone="no"?>
<!-- Created with Inkscape (http://www.inkscape.org/) -->

<svg
   width="16.814449mm"
   height="16.814449mm"
   viewBox="0 0 16.814449 16.814449"
   version="1.1"
   id="svg1"
   xmlns="http://www.w3.org/2000/svg"
   xmlns:svg="http://www.w3.org/2000/svg">
  <defs
     id="defs1" />
  <g
     id="layer1"
     transform="translate(-154.78125,-224.89583)">
    <path
       id="path720"
       style="fill:#FF4848;fill-opacity:1;fill-rule:nonzero;stroke:none;stroke-width:0.0352778"
       d="m 171.5957,233.30288 c 0,4.64326 -3.76414,8.4074 -8.4074,8.4074 -4.64291,0 -8.40705,-3.76414 -8.40705,-8.4074 0,-4.64291 3.76414,-8.40705 8.40705,-8.40705 4.64326,0 8.4074,3.76414 8.4074,8.40705" />
    <path
       id="path722"
       style="fill:#ffffff;fill-opacity:1;fill-rule:nonzero;stroke:none;stroke-width:0.0352778"
       d="m 165.50499,230.49018 c -0.28328,0 -0.51293,0.22966 -0.51293,0.51294 0,0.28328 0.22965,0.51329 0.51293,0.51329 0.28328,0 0.51294,-0.23001 0.51294,-0.51329 0,-0.28328 -0.22966,-0.51294 -0.51294,-0.51294" />
    <path
       id="path724"
       style="fill:#ffffff;fill-opacity:1;fill-rule:nonzero;stroke:none;stroke-width:0.0352778"
       d="m 163.22429,234.6833 c -0.76095,0 -1.38042,-0.61913 -1.38042,-1.38042 0,-0.76094 0.61947,-1.38007 1.38042,-1.38007 0.76129,0 1.38042,0.61913 1.38042,1.38007 0,0.76129 -0.61913,1.38042 -1.38042,1.38042 z m 0,-3.53519 c -1.18816,0 -2.15477,0.96661 -2.15477,2.15477 0,1.18851 0.96661,2.15512 2.15477,2.15512 1.18815,0 2.15512,-0.96661 2.15512,-2.15512 0,-1.18816 -0.96697,-2.15477 -2.15512,-2.15477" />
    <path
       id="path726"
       style="fill:#ffffff;fill-opacity:1;fill-rule:nonzero;stroke:none;stroke-width:0.0352778"
       d="m 161.4417,229.75111 c -0.99554,0 -1.80516,0.80963 -1.80516,1.80516 v 3.49356 c 0,0.99554 0.80962,1.80517 1.80516,1.80517 h 3.49356 c 0.99518,0 1.80516,-0.80963 1.80516,-1.80517 v -3.49356 c 0,-0.99553 -0.80998,-1.80516 -1.80516,-1.80516 z m 3.49356,7.92692 h -3.49356 c -1.44921,0 -2.6282,-1.17899 -2.6282,-2.6282 v -3.49356 c 0,-1.44921 1.17899,-2.62819 2.6282,-2.62819 h 3.49356 c 1.44921,0 2.62819,1.17898 2.62819,2.62819 v 3.49356 c 0,1.44921 -1.17898,2.6282 -2.62819,2.6282" />
  </g>
</svg>
