<?xml version="1.0" encoding="UTF-8" standalone="no"?>
<!-- Created with Inkscape (http://www.inkscape.org/) -->

<svg
   width="16.814096mm"
   height="16.814449mm"
   viewBox="0 0 16.814096 16.814449"
   version="1.1"
   id="svg1"
   xmlns="http://www.w3.org/2000/svg"
   xmlns:svg="http://www.w3.org/2000/svg">
  <defs
     id="defs1" />
  <g
     id="layer1"
     transform="translate(-96.572924,-139.96458)">
    <path
       id="path756"
       style="fill:#36392D;fill-opacity:1;fill-rule:nonzero;stroke:none;stroke-width:0.0352778"
       d="m 113.38702,148.37163 c 0,4.64326 -3.76379,8.4074 -8.40705,8.4074 -4.64326,0 -8.407046,-3.76414 -8.407046,-8.4074 0,-4.64291 3.763786,-8.40705 8.407046,-8.40705 4.64326,0 8.40705,3.76414 8.40705,8.40705" />
    <path
       id="path758"
       style="fill:#ffffff;fill-opacity:1;fill-rule:nonzero;stroke:none;stroke-width:0.0352778"
       d="m 108.60935,147.47063 h -0.001 c -0.0773,0.007 -0.15487,0.0116 -0.23248,0.012 -0.85161,0 -1.64606,-0.42933 -2.11279,-1.14194 v 3.88796 c 0,1.58715 -1.28658,2.87373 -2.87337,2.87373 -1.58715,0 -2.87373,-1.28658 -2.87373,-2.87373 0,-1.58715 1.28658,-2.87338 2.87373,-2.87338 0.06,0 0.11853,0.005 0.17744,0.009 v 1.41605 c -0.0589,-0.007 -0.11677,-0.0176 -0.17744,-0.0176 -0.80998,0 -1.46685,0.65652 -1.46685,1.46649 0,0.80998 0.65687,1.46685 1.46685,1.46685 0.80997,0 1.52541,-0.63852 1.52541,-1.4485 l 0.0141,-6.6033 h 1.35502 c 0.1277,1.21497 1.10702,2.16394 2.32551,2.25284 v 1.57374" />
  </g>
</svg>
