<?xml version="1.0" encoding="UTF-8" standalone="no"?>
<!-- Created with Inkscape (http://www.inkscape.org/) -->

<svg
   width="16.814449mm"
   height="16.814369mm"
   viewBox="0 0 16.814449 16.814369"
   version="1.1"
   id="svg1"
   xmlns="http://www.w3.org/2000/svg"
   xmlns:svg="http://www.w3.org/2000/svg">
  <defs
     id="defs1" />
  <g
     id="layer1"
     transform="translate(-161.39584,-233.62708)">
    <path
       id="path606"
       style="fill:#A94438;fill-opacity:1;fill-rule:nonzero;stroke:none;stroke-width:0.0352778"
       d="m 178.21029,242.03412 c 0,4.64323 -3.76414,8.40733 -8.4074,8.40733 -4.64291,0 -8.40705,-3.7641 -8.40705,-8.40733 0,-4.64291 3.76414,-8.40704 8.40705,-8.40704 4.64326,0 8.4074,3.76413 8.4074,8.40704" />
    <path
       id="path608"
       style="fill:#ffffff;fill-opacity:1;fill-rule:nonzero;stroke:none;stroke-width:0.0352778"
       d="m 167.92364,244.87861 0.14711,0.0878 c 0.53939,0.32134 1.15323,0.49142 1.77447,0.49142 1.91699,0 3.47662,-1.5596 3.47662,-3.47659 0,-1.91665 -1.55963,-3.47628 -3.47662,-3.47628 -1.91664,0 -3.47627,1.55963 -3.47627,3.47628 0,0.63323 0.17568,1.25624 0.50835,1.80269 l 0.0903,0.14781 -0.34749,1.29608 z m -2.44934,1.49503 0.62195,-2.32163 c -0.35207,-0.63535 -0.53763,-1.34761 -0.53763,-2.0708 0,-2.36361 1.92299,-4.28661 4.2866,-4.28661 2.36361,0 4.2866,1.923 4.2866,4.28661 0,2.36396 -1.92299,4.28699 -4.2866,4.28699 -0.70944,0 -1.41041,-0.17928 -2.03765,-0.51964 l -2.33327,0.62508" />
    <path
       id="path610"
       style="fill:#ffffff;fill-opacity:1;fill-rule:evenodd;stroke:none;stroke-width:0.0352778"
       d="m 171.43977,242.5774 c -0.17638,-0.10548 -0.40569,-0.22331 -0.61383,-0.13829 -0.15945,0.0653 -0.26105,0.31503 -0.36442,0.44239 -0.0533,0.0656 -0.11642,0.0755 -0.19791,0.043 -0.59866,-0.23847 -1.05727,-0.63817 -1.38747,-1.18886 -0.0561,-0.0854 -0.0459,-0.1531 0.0215,-0.23248 0.0998,-0.11712 0.22507,-0.25082 0.25188,-0.40922 0.0272,-0.15804 -0.0473,-0.34325 -0.11254,-0.48436 -0.0836,-0.17992 -0.17709,-0.4371 -0.35771,-0.5387 -0.16581,-0.0938 -0.38418,-0.0413 -0.53199,0.079 -0.25506,0.20778 -0.37818,0.53304 -0.37465,0.85584 0.001,0.0917 0.0123,0.18309 0.0339,0.27163 0.0515,0.21273 0.14993,0.41134 0.26035,0.60043 0.0836,0.14252 0.17427,0.28046 0.27199,0.41346 0.32032,0.43497 0.71861,0.8128 1.17969,1.09537 0.23071,0.14111 0.47872,0.26494 0.73589,0.34996 0.28822,0.0953 0.54504,0.19438 0.85619,0.13511 0.32597,-0.0617 0.64735,-0.26352 0.77682,-0.57749 0.0381,-0.0931 0.0572,-0.1965 0.036,-0.29493 -0.0444,-0.20284 -0.31926,-0.32349 -0.48366,-0.42192" />
  </g>
</svg>
