<?xml version="1.0" encoding="UTF-8" standalone="no"?>
<svg
   viewBox="0 0 381.69065 381.69065"
   height="381.69064"
   width="381.69064"
   xml:space="preserve"
   id="svg2"
   version="1.1"
   xmlns="http://www.w3.org/2000/svg"
   xmlns:svg="http://www.w3.org/2000/svg"
   xmlns:rdf="http://www.w3.org/1999/02/22-rdf-syntax-ns#"
   xmlns:cc="http://creativecommons.org/ns#"
   xmlns:dc="http://purl.org/dc/elements/1.1/"><metadata
     id="metadata8"><rdf:RDF><cc:Work
         rdf:about=""><dc:format>image/svg+xml</dc:format><dc:type
           rdf:resource="http://purl.org/dc/dcmitype/StillImage" /></cc:Work></rdf:RDF></metadata><defs
     id="defs6"><clipPath
       id="clipPath22"
       clipPathUnits="userSpaceOnUse"><path
         id="path20"
         d="m 2500,757.84 c -664.12,0 -1202.5,28.82 -1202.5,64.359 0,35.539 538.38,64.36 1202.5,64.36 664.12,0 1202.5,-28.821 1202.5,-64.36 0,-35.539 -538.38,-64.359 -1202.5,-64.359" /></clipPath>
         <radialGradient
       id="radialGradient28"
       spreadMethod="pad"
       gradientTransform="matrix(854.676,0,0,-45.0099,2500,822.2)"
       gradientUnits="userSpaceOnUse"
       r="1"
       cy="0"
       cx="0"
       fy="0"
       fx="0"><stop
         id="stop24"
         offset="0"
         style="stop-opacity:1;stop-color:#a5b5ac" /><stop
         id="stop26"
         offset="1"
         style="stop-opacity:1;stop-color:#cadfd1" /></radialGradient>
         <linearGradient
       id="linearGradient36"
       spreadMethod="pad"
       gradientTransform="matrix(0,-2461.09,-2461.09,0,2533.22,3986.89)"
       gradientUnits="userSpaceOnUse"
       y2="0"
       x2="1"
       y1="0"
       x1="0"><stop
         id="stop32"
         offset="0"
         style="stop-opacity:1;stop-color:#36392D" /><stop
         id="stop34"
         offset="1"
         style="stop-opacity:1;stop-color:#000" /></linearGradient></defs><g
     transform="matrix(1.3333333,0,0,-1.3333333,-142.488,554.84532)"
     id="g10"><g
       transform="scale(0.1)"
       id="g12"><path
         id="path38"
         style="fill:url(#linearGradient36);fill-opacity:1;fill-rule:evenodd;stroke:none"
         d="m 2533.28,3986.89 c -683.99,0 -1240.2,-551.95 -1240.2,-1230.61 0,-269.13 87.68,-518.57 236.2,-721.51 l -154.87,-456.93 476.5,151.41 c 195.77,-128.46 430.35,-203.45 682.37,-203.45 683.7,0 1240.09,551.99 1240.09,1230.48 0,678.66 -556.39,1230.61 -1240.09,1230.61" /><path
         id="path40"
         style="fill:#ffffff;fill-opacity:1;fill-rule:evenodd;stroke:none"
         d="m 3235.7,2445.64 c -8.7,14.27 -31.68,22.83 -65.99,39.92 -34.48,17.06 -203.93,99.84 -235.46,111.16 -31.53,11.38 -54.67,17.1 -77.49,-17.05 -22.98,-34.2 -89.03,-111.2 -109.18,-134.03 -20.04,-22.86 -40.08,-25.64 -74.54,-8.55 -34.51,17.06 -145.57,53.28 -277.09,169.58 -102.34,90.73 -171.48,202.53 -191.68,236.72 -20,34.16 -1.99,52.65 15.07,69.7 15.54,15.39 34.51,39.92 51.72,59.8 17.26,20.04 22.99,34.35 34.48,57.17 11.49,22.83 5.76,42.7 -2.95,59.8 -8.54,17.06 -77.49,185.28 -106.23,253.79 -28.55,68.3 -57.3,65.75 -77.49,65.75 -20.04,0 -57.22,-5.95 -57.22,-5.95 0,0 -69.06,-8.55 -100.59,-42.75 -31.53,-34.15 -120.51,-116.93 -120.51,-284.99 0,-168.19 123.33,-330.8 140.55,-353.46 17.25,-22.87 238.24,-379.27 588.48,-516.12 350.23,-136.81 350.23,-91.17 413.42,-85.4 63.05,5.56 203.77,82.62 232.51,162.45 28.75,79.84 28.75,148.3 20.19,162.46 z m -709.62,1493.6 c -651.66,0 -1181.57,-525.86 -1181.57,-1172.42 0,-256.41 83.54,-494.06 225.04,-687.41 L 1422,1644.09 l 453.98,144.25 c 186.51,-122.38 409.99,-193.83 650.1,-193.83 651.38,0 1181.45,525.9 1181.45,1172.31 0,646.56 -530.07,1172.42 -1181.45,1172.42 z M 3931.34,2766.82 c 0,-770.02 -629.15,-1394.41 -1405.26,-1394.41 -246.47,0 -478.03,62.94 -679.33,173.52 l -778.09,-247.27 253.63,748.12 c -127.99,210.16 -201.58,456.63 -201.58,720.04 0,770.18 629.15,1394.52 1405.37,1394.52 776.11,0 1405.26,-624.34 1405.26,-1394.52" /></g></g></svg>
