<?xml version="1.0" encoding="UTF-8" standalone="no"?>
<!-- Created with Inkscape (http://www.inkscape.org/) -->

<svg
   width="11.626149mm"
   height="11.62615mm"
   viewBox="0 0 11.626149 11.62615"
   version="1.1"
   id="svg1"
   sodipodi:docname="WhatsApp.svg"
   inkscape:version="1.3.2 (091e20e, 2023-11-25, custom)"
   xmlns:inkscape="http://www.inkscape.org/namespaces/inkscape"
   xmlns:sodipodi="http://sodipodi.sourceforge.net/DTD/sodipodi-0.dtd"
   xmlns="http://www.w3.org/2000/svg"
   xmlns:svg="http://www.w3.org/2000/svg">
  <sodipodi:namedview
     id="namedview1"
     pagecolor="#ffffff"
     bordercolor="#000000"
     borderopacity="0.25"
     inkscape:showpageshadow="2"
     inkscape:pageopacity="0.0"
     inkscape:pagecheckerboard="0"
     inkscape:deskcolor="#d1d1d1"
     inkscape:document-units="mm"
     inkscape:zoom="11.280569"
     inkscape:cx="20.211747"
     inkscape:cy="30.805185"
     inkscape:window-width="1920"
     inkscape:window-height="1017"
     inkscape:window-x="-8"
     inkscape:window-y="-8"
     inkscape:window-maximized="1"
     inkscape:current-layer="svg1" />
  <defs
     id="defs1" />
  <g
     id="layer1"
     transform="translate(-83.644331,-111.31054)">
    <path
       id="path682"
       style="fill:#FFFFFF;fill-opacity:1;fill-rule:evenodd;stroke:none;stroke-width:0.0352778"
       d="m 89.457404,121.9214 c -0.848783,0 -1.684514,-0.22578 -2.415822,-0.653 -0.07832,-0.0459 -0.166511,-0.0695 -0.255764,-0.0695 -0.04516,0 -0.09031,0.006 -0.134409,0.0183 l -1.589616,0.43568 0.553508,-1.21955 c 0.07549,-0.16581 0.05609,-0.35913 -0.05045,-0.50659 -0.592314,-0.82091 -0.905228,-1.78999 -0.905228,-2.80317 0,-2.64548 2.152297,-4.79778 4.797778,-4.79778 2.645481,0 4.797778,2.1523 4.797778,4.79778 0,2.64548 -2.152297,4.79778 -4.797778,4.79778 z m 0,-10.61085 c -3.205339,0 -5.813073,2.60773 -5.813073,5.81307 0,1.12748 0.320323,2.2105 0.928512,3.1503 l -0.883003,1.94522 c -0.08149,0.17956 -0.05186,0.38947 0.07585,0.5394 0.09772,0.11465 0.239889,0.17815 0.386292,0.17815 0.0448,0 0.08996,-0.006 0.134408,-0.018 l 2.433109,-0.66746 c 0.839963,0.44909 1.78188,0.68545 2.737908,0.68545 3.205339,0 5.813073,-2.60773 5.813073,-5.81307 0,-3.20534 -2.607734,-5.81307 -5.813073,-5.81307" />
    <path
       id="path684"
       style="fill:#FFFFFF;fill-opacity:1;fill-rule:evenodd;stroke:none;stroke-width:0.0352778"
       d="m 91.692604,117.99427 c -0.243769,-0.14569 -0.560564,-0.30832 -0.847372,-0.19085 -0.220133,0.09 -0.360539,0.43427 -0.502708,0.61031 -0.07338,0.0903 -0.160514,0.10442 -0.27305,0.0589 -0.826206,-0.32879 -1.459089,-0.88018 -1.914878,-1.64006 -0.07691,-0.11783 -0.06315,-0.21096 0.02999,-0.32033 0.137583,-0.16227 0.310444,-0.34642 0.347839,-0.56479 0.03704,-0.21837 -0.06526,-0.47378 -0.155575,-0.66816 -0.115359,-0.24871 -0.244475,-0.60325 -0.493184,-0.74366 -0.228953,-0.12947 -0.530578,-0.0572 -0.734483,0.10901 -0.352072,0.28645 -0.522111,0.73554 -0.51682,1.18075 0.0014,0.12664 0.01729,0.25258 0.04657,0.37465 0.07091,0.29386 0.206728,0.56797 0.359481,0.82867 0.115358,0.1965 0.240241,0.38735 0.375355,0.5708 0.441678,0.60007 0.991306,1.12148 1.627717,1.5113 0.318206,0.19473 0.6604,0.36547 1.014942,0.4826 0.397933,0.13158 0.752122,0.26811 1.181805,0.18662 0.449439,-0.0854 0.892881,-0.36372 1.071387,-0.79693 0.05256,-0.12841 0.07902,-0.27129 0.04974,-0.40675 -0.06103,-0.28011 -0.440619,-0.44662 -0.66675,-0.58209" />
  </g>
</svg>
